<svg t="1586499026534" class="icon" viewBox="0 0 1024 1024" version="1.1" xmlns="http://www.w3.org/2000/svg" p-id="4825" width="200" height="200"><path d="M896 128H128a42.666667 42.666667 0 0 0-42.666667 42.666667v256a42.666667 42.666667 0 0 0 42.666667 42.666666h768a42.666667 42.666667 0 0 0 42.666667-42.666666V170.666667a42.666667 42.666667 0 0 0-42.666667-42.666667z m-42.666667 256H170.666667V213.333333h682.666666v170.666667z m42.666667 170.666667H128a42.666667 42.666667 0 0 0-42.666667 42.666666v256a42.666667 42.666667 0 0 0 42.666667 42.666667h768a42.666667 42.666667 0 0 0 42.666667-42.666667v-256a42.666667 42.666667 0 0 0-42.666667-42.666666z m-42.666667 256H170.666667v-170.666667h682.666666v170.666667z" fill="" p-id="4826"></path><path d="M725.333333 256h85.333334v85.333333h-85.333334z m-128 0h85.333334v85.333333h-85.333334z m128 426.666667h85.333334v85.333333h-85.333334z m-128 0h85.333334v85.333333h-85.333334z" fill="" p-id="4827"></path></svg>