<svg t="1586499266204"  viewBox="0 0 1024 1024" version="1.1" xmlns="http://www.w3.org/2000/svg" p-id="2778" width="128" height="128"><path d="M889.774461 721.05327c0 94.034676-76.231195 170.265872-170.264848 170.265872-94.0357 0-170.264848-76.231195-170.264848-170.265872 0-94.0357 76.229149-170.263825 170.264848-170.263825C813.543266 550.789445 889.774461 627.018593 889.774461 721.05327zM729.41317 663.499459c0-6.839779-5.545296-12.383028-12.384052-12.383028l-11.381212 0c-6.838755 0-12.383028 5.54325-12.383028 12.383028l0 62.946634c0 6.837732 5.544273 12.383028 12.383028 12.383028l11.381212 0c6.838755 0 12.384052-5.545296 12.384052-12.383028L729.41317 663.499459zM709.381951 712.505593c-8.322549 0-15.071254 5.544273-15.071254 12.383028l0 11.380188c0 6.839779 6.748704 12.384052 15.071254 12.384052l76.607772 0c8.322549 0 15.071254-5.544273 15.071254-12.384052l0-11.380188c0-6.838755-6.748704-12.383028-15.071254-12.383028L709.381951 712.505593zM719.509612 593.522712c-70.434166 0-127.531582 57.098439-127.531582 127.530558 0 70.433142 57.097416 127.532605 127.531582 127.532605 70.433142 0 127.531582-57.099463 127.531582-127.532605C847.041194 650.621151 789.942755 593.522712 719.509612 593.522712z" p-id="2779"></path><path d="M738.025315 236.053204l0 299.234175c19.09387 1.968841 37.34249 6.78145 54.318116 14.009062L792.343431 208.899774c0-15.003715-12.159948-27.15957-27.158547-27.15957L618.641297 181.740204c5.358031 7.704472 8.509814 17.058514 8.509814 27.15957 0 10.093892-3.151783 19.448958-8.509814 27.15343L738.025315 236.053204z" p-id="2780"></path><path d="M405.802818 291.536866l113.009843 0c29.028127 0 52.562123-23.535019 52.562123-52.562123l0-4.673439c0-29.02608-23.533996-52.5611-52.562123-52.5611l-2.219551 0c1.803066-4.517897 2.800789-9.444093 2.800789-14.601556 0-21.773909-17.646915-39.423895-39.418778-39.423895l-33.292244 0c-21.772886 0-39.421848 17.649985-39.421848 39.423895 0 5.157463 1.00284 10.083659 2.805906 14.601556l-4.264117 0c-29.03222 0-52.566216 23.535019-52.566216 52.5611l0 4.673439C353.236602 268.001847 376.770598 291.536866 405.802818 291.536866z" p-id="2781"></path><path d="M313.981553 580.815295l83.769892 83.769892c6.541997 6.541997 15.119349 9.81453 23.693632 9.81453s17.147542-3.272533 23.688515-9.81453l167.537737-167.530574c13.088086-13.088086 13.088086-34.302247 0-47.387263-13.083993-13.088086-34.294061-13.088086-47.38317 0L421.445076 593.510432l-60.077284-60.07933c-13.08297-13.07683-34.297131-13.07683-47.38624 0C300.900629 546.518165 300.900629 567.735395 313.981553 580.815295z" p-id="2782"></path><path d="M569.385477 839.066057l-380.843868 0L188.541609 236.053204l118.600165 0c-5.359055-7.704472-8.509814-17.059538-8.509814-27.15343 0-10.101055 3.151783-19.455097 8.509814-27.15957L161.383062 181.740204c-14.998599 0-27.158547 12.155854-27.158547 27.15957l0 657.32483c0 14.999622 12.159948 27.160593 27.158547 27.160593l475.286844 0C610.240977 880.668571 587.23296 861.975836 569.385477 839.066057z" p-id="2783"></path></svg>